<?xml version="1.0" encoding="UTF-8"?>
<!-- Generator: Adobe Illustrator 16.0.0, SVG Export Plug-In . SVG Version: 6.00 Build 0)  -->
<svg xmlns="http://www.w3.org/2000/svg" xmlns:xlink="http://www.w3.org/1999/xlink" version="1.1" id="Layer_1" x="0px" y="0px" width="95.714px" height="97.195px" viewBox="0 0 95.714 97.195" xml:space="preserve">
<path fill="#F1AB1F" d="M62.841,11.17V0.172c0.207,0.091,0.402,0.23,0.574,0.402l11.004,11.003c0.172,0.172,0.31,0.368,0.401,0.574  H63.823C63.284,12.151,62.841,11.709,62.841,11.17 M18.822,21.37c0-5.504,4.46-9.965,9.965-9.965c5.504,0,9.965,4.46,9.965,9.965  c0,5.505-4.46,9.965-9.965,9.965C23.282,31.334,18.822,26.874,18.822,21.37 M22.816,22.799l2.813,2.813  c0.631,0.637,1.676,0.637,2.301-0.006l6.762-6.142c0.666-0.603,0.712-1.624,0.109-2.284c-0.603-0.66-1.624-0.706-2.284-0.108  l-5.688,5.166l-1.722-1.728c-0.631-0.631-1.659-0.631-2.291,0C22.185,21.14,22.185,22.168,22.816,22.799 M95.714,76.479  c0,11.441-9.276,20.717-20.722,20.717c-11.444,0-20.721-9.275-20.721-20.717c0-11.445,9.276-20.721,20.721-20.721  C86.438,55.757,95.714,65.034,95.714,76.479 M86.685,68.115c-1.199-1.193-3.146-1.193-4.34,0.012L72.273,78.305l-4.633-4.633  c-1.2-1.199-3.146-1.199-4.346,0c-1.201,1.199-1.199,3.15,0,4.352l6.807,6.807c1.199,1.199,3.152,1.199,4.351,0  c4.104-4.104,8.163-8.254,12.244-12.381C87.89,71.25,87.884,69.311,86.685,68.115 M62.956,97.195H1.957  C0.878,97.195,0,96.316,0,95.238V1.957C0,0.878,0.878,0,1.957,0h57.647v11.17c0,2.33,1.889,4.219,4.219,4.219h11.17v37.126  c-2.903,0-5.688,0.517-8.267,1.464c0.139-0.235,0.214-0.511,0.214-0.798c0-0.896-0.724-1.623-1.619-1.623H9.672  c-0.896,0-1.619,0.728-1.619,1.623c0,0.891,0.723,1.619,1.619,1.619h55.109c-2.755,1.297-5.225,3.105-7.277,5.304H9.672  c-0.896,0-1.619,0.723-1.619,1.618s0.723,1.625,1.619,1.625h45.277c-1.074,1.635-1.957,3.415-2.605,5.303H9.672  c-0.896,0-1.619,0.723-1.619,1.617c0,0.896,0.723,1.621,1.619,1.621h41.804c-0.344,1.75-0.482,3.523-0.432,5.303H9.672  c-0.896,0-1.619,0.729-1.619,1.623c0,0.891,0.723,1.619,1.619,1.619h41.689c0.304,1.848,0.82,3.623,1.527,5.303H9.672  c-0.896,0-1.619,0.725-1.619,1.619c0,0.896,0.723,1.619,1.619,1.619h44.875C56.625,92.361,59.517,95.197,62.956,97.195   M24.687,41.27c-2.445,0.196-4.832-0.941-6.222-3.059c-0.482-0.74-1.113-2.112-1.888-2.497l-3.697,7.945l5.821-1.017l2.967,5.109  L24.687,41.27z M44.692,42.103l-2.905-6.75c-0.493,0.206-0.958,0.419-1.142,0.562c-0.361,0.327-1.251,1.849-1.545,2.296  c-1.216,1.86-3.203,2.962-5.32,3.071l2.003,4.655l3.117-5.023L44.692,42.103z M12.289,21.037c1.883,3.731,1.745,2.933,1.246,7.083  c-0.189,1.59,0.66,3.059,2.136,3.697c3.84,1.641,3.22,1.125,5.51,4.62c0.878,1.344,2.475,1.923,4.006,1.458  c4.001-1.212,3.192-1.212,7.192,0c1.538,0.465,3.134-0.115,4.013-1.458c2.284-3.495,1.665-2.979,5.504-4.62  c1.475-0.638,2.325-2.107,2.136-3.697c-0.494-4.15-0.638-3.352,1.251-7.083c0.723-1.43,0.424-3.105-0.746-4.202  c-3.042-2.858-2.64-2.158-3.593-6.228c-0.368-1.561-1.665-2.651-3.267-2.743c-4.172-0.231-3.415,0.046-6.762-2.458  c-1.28-0.964-2.979-0.964-4.265,0c-3.346,2.503-2.583,2.227-6.755,2.458c-1.602,0.091-2.905,1.182-3.272,2.743  c-0.952,4.07-0.545,3.37-3.593,6.228C11.859,17.932,11.566,19.607,12.289,21.037"></path>
</svg>
