<?xml version="1.0" encoding="UTF-8"?>
<!-- Generator: Adobe Illustrator 16.0.0, SVG Export Plug-In . SVG Version: 6.00 Build 0)  -->
<svg xmlns="http://www.w3.org/2000/svg" xmlns:xlink="http://www.w3.org/1999/xlink" version="1.1" id="Layer_1" x="0px" y="0px" width="106.955px" height="106.957px" viewBox="0 0 106.955 106.957" xml:space="preserve">
<g>
	<path fill="#F1AB1F" d="M53.478,29.287c-13.339,0-24.191,10.852-24.191,24.191c0,7.728,3.623,14.867,9.773,19.428   c0.01-0.043,0.022-0.085,0.033-0.128c0.022-0.095,0.046-0.189,0.071-0.283c0.031-0.121,0.063-0.242,0.097-0.362   c0.027-0.095,0.055-0.188,0.084-0.283c0.036-0.117,0.074-0.233,0.112-0.35c0.032-0.094,0.063-0.188,0.096-0.279   c0.041-0.115,0.084-0.229,0.128-0.342c0.035-0.091,0.07-0.183,0.107-0.273c0.046-0.112,0.095-0.225,0.143-0.336   c0.039-0.088,0.077-0.176,0.117-0.264c0.052-0.113,0.107-0.225,0.162-0.337c0.041-0.082,0.08-0.165,0.122-0.247   c0.062-0.119,0.127-0.236,0.192-0.355c0.039-0.07,0.077-0.143,0.117-0.213c0.104-0.185,0.214-0.365,0.327-0.545   c0.033-0.053,0.069-0.104,0.104-0.156c0.082-0.127,0.165-0.254,0.251-0.377c0.052-0.075,0.106-0.147,0.159-0.221   c0.072-0.1,0.144-0.199,0.218-0.299c0.059-0.076,0.12-0.152,0.18-0.228c0.073-0.091,0.145-0.183,0.22-0.272   c0.063-0.076,0.129-0.15,0.194-0.227c0.075-0.086,0.149-0.172,0.226-0.256c0.067-0.074,0.136-0.147,0.206-0.221   c0.077-0.082,0.155-0.162,0.234-0.242c0.072-0.072,0.143-0.143,0.216-0.213c0.081-0.078,0.162-0.156,0.245-0.231   c0.074-0.069,0.148-0.138,0.223-0.204c0.085-0.075,0.171-0.148,0.257-0.223c0.076-0.063,0.152-0.127,0.23-0.19   c0.089-0.073,0.18-0.144,0.271-0.214c0.078-0.061,0.154-0.12,0.233-0.18c0.096-0.07,0.193-0.139,0.291-0.207   c0.076-0.055,0.152-0.109,0.23-0.162c0.107-0.073,0.217-0.143,0.327-0.213c0.07-0.045,0.139-0.092,0.209-0.135   c0.17-0.105,0.342-0.205,0.515-0.304c0.051-0.028,0.102-0.055,0.152-0.082c0.148-0.081,0.297-0.161,0.447-0.237   c0.075-0.037,0.15-0.071,0.225-0.107c0.119-0.057,0.238-0.114,0.359-0.169c0.083-0.037,0.168-0.071,0.252-0.108   c0.114-0.048,0.229-0.098,0.345-0.144c0.088-0.034,0.177-0.067,0.266-0.101c0.114-0.043,0.229-0.086,0.344-0.125   c0.092-0.031,0.184-0.062,0.276-0.092c0.116-0.037,0.231-0.074,0.348-0.109c0.093-0.027,0.187-0.053,0.281-0.08   c0.118-0.032,0.237-0.063,0.355-0.092c0.095-0.024,0.19-0.047,0.285-0.069c0.121-0.027,0.243-0.054,0.365-0.078   c0.095-0.019,0.189-0.038,0.285-0.056c0.125-0.022,0.251-0.043,0.378-0.063c0.093-0.014,0.187-0.029,0.281-0.042   c0.133-0.019,0.266-0.032,0.4-0.048c0.089-0.01,0.178-0.02,0.267-0.028c0.149-0.014,0.3-0.022,0.45-0.032   c0.076-0.004,0.15-0.011,0.226-0.014c0.227-0.011,0.454-0.016,0.684-0.016c0.229,0,0.457,0.005,0.683,0.016   c0.076,0.003,0.151,0.01,0.227,0.014c0.149,0.01,0.301,0.019,0.449,0.032c0.09,0.009,0.179,0.019,0.268,0.028   c0.134,0.016,0.268,0.029,0.4,0.048c0.095,0.013,0.188,0.028,0.281,0.042c0.126,0.02,0.252,0.04,0.379,0.063   c0.094,0.018,0.189,0.037,0.284,0.056c0.121,0.024,0.243,0.051,0.364,0.078c0.096,0.022,0.191,0.045,0.285,0.069   c0.119,0.028,0.236,0.06,0.354,0.092c0.095,0.025,0.188,0.053,0.282,0.08c0.116,0.035,0.232,0.072,0.348,0.109   c0.092,0.029,0.185,0.061,0.275,0.092c0.116,0.039,0.23,0.082,0.344,0.125c0.09,0.033,0.178,0.065,0.268,0.101   c0.115,0.046,0.229,0.095,0.344,0.144c0.084,0.036,0.17,0.071,0.253,0.108c0.12,0.054,0.237,0.11,0.356,0.168   c0.076,0.037,0.152,0.071,0.227,0.108c0.15,0.076,0.297,0.154,0.443,0.234c0.055,0.03,0.109,0.059,0.164,0.089   c0.17,0.097,0.34,0.196,0.506,0.3c0.072,0.043,0.142,0.09,0.212,0.135c0.108,0.07,0.219,0.14,0.325,0.211   c0.078,0.054,0.154,0.109,0.231,0.164c0.097,0.068,0.194,0.137,0.29,0.207c0.079,0.06,0.156,0.119,0.232,0.18   c0.092,0.07,0.183,0.141,0.271,0.214c0.077,0.062,0.154,0.127,0.23,0.192c0.086,0.072,0.172,0.146,0.257,0.222   c0.075,0.067,0.149,0.134,0.223,0.203c0.083,0.075,0.165,0.153,0.245,0.231c0.073,0.07,0.145,0.141,0.216,0.213   c0.079,0.08,0.157,0.162,0.235,0.242c0.068,0.073,0.138,0.146,0.205,0.221c0.076,0.084,0.15,0.171,0.226,0.257   c0.065,0.075,0.13,0.149,0.194,0.226c0.074,0.09,0.146,0.182,0.22,0.273c0.06,0.076,0.121,0.15,0.179,0.227   c0.076,0.1,0.147,0.2,0.221,0.301c0.052,0.072,0.105,0.144,0.156,0.219c0.088,0.123,0.17,0.25,0.254,0.378   c0.033,0.053,0.068,0.103,0.103,0.157c0.112,0.178,0.222,0.359,0.327,0.543c0.04,0.07,0.077,0.142,0.115,0.213   c0.065,0.117,0.131,0.236,0.193,0.355c0.043,0.082,0.082,0.165,0.121,0.247c0.057,0.112,0.111,0.224,0.163,0.337   c0.04,0.088,0.078,0.176,0.117,0.264c0.048,0.111,0.097,0.224,0.144,0.336c0.037,0.091,0.071,0.183,0.106,0.274   c0.044,0.113,0.087,0.226,0.127,0.341c0.034,0.094,0.065,0.187,0.097,0.28c0.039,0.115,0.076,0.231,0.112,0.349   c0.029,0.095,0.058,0.189,0.084,0.285c0.034,0.118,0.065,0.238,0.097,0.358c0.025,0.096,0.049,0.19,0.072,0.286   c0.01,0.043,0.021,0.085,0.032,0.128c6.149-4.56,9.772-11.7,9.772-19.429C77.67,40.139,66.816,29.287,53.478,29.287 M53.478,57.484   c-4.555,0-8.262-3.705-8.262-8.261c0-4.555,3.707-8.261,8.262-8.261c4.556,0,8.262,3.706,8.262,8.261   C61.739,53.779,58.033,57.484,53.478,57.484"></path>
	<path fill="#F1AB1F" d="M53.478,43.237c-3.301,0-5.986,2.686-5.986,5.986c0,3.301,2.685,5.985,5.986,5.985   c3.301,0,5.985-2.685,5.985-5.985C59.463,45.923,56.778,43.237,53.478,43.237"></path>
	<path fill="#F1AB1F" d="M65.748,73.751c-0.023-0.112-0.049-0.223-0.074-0.333c-0.018-0.078-0.033-0.156-0.053-0.232   c-0.029-0.117-0.062-0.232-0.094-0.348c-0.02-0.07-0.036-0.139-0.057-0.207c-0.04-0.137-0.086-0.271-0.131-0.406   c-0.015-0.045-0.027-0.092-0.043-0.137c-0.063-0.18-0.129-0.357-0.199-0.533c-0.014-0.032-0.028-0.064-0.041-0.097   c-0.059-0.143-0.118-0.284-0.182-0.423c-0.025-0.059-0.056-0.117-0.082-0.175c-0.054-0.111-0.105-0.224-0.16-0.332   c-0.034-0.065-0.07-0.131-0.105-0.196c-0.053-0.1-0.105-0.199-0.161-0.297c-0.039-0.068-0.08-0.135-0.12-0.203   c-0.054-0.092-0.109-0.185-0.166-0.275c-0.043-0.069-0.089-0.137-0.134-0.205c-0.057-0.086-0.112-0.174-0.172-0.26   c-0.047-0.067-0.097-0.134-0.146-0.201c-0.06-0.082-0.119-0.166-0.182-0.248c-0.05-0.066-0.102-0.131-0.154-0.196   c-0.063-0.079-0.125-0.159-0.19-0.237c-0.054-0.064-0.109-0.127-0.165-0.191c-0.064-0.075-0.131-0.151-0.199-0.225   c-0.057-0.063-0.115-0.125-0.174-0.186c-0.068-0.072-0.137-0.145-0.207-0.215c-0.061-0.061-0.122-0.119-0.184-0.18   c-0.071-0.068-0.143-0.136-0.215-0.203c-0.063-0.058-0.127-0.115-0.191-0.172c-0.074-0.064-0.149-0.129-0.225-0.193   c-0.065-0.055-0.133-0.108-0.199-0.163c-0.076-0.062-0.153-0.122-0.232-0.183c-0.068-0.052-0.137-0.104-0.206-0.154   c-0.079-0.059-0.159-0.116-0.239-0.174c-0.072-0.049-0.143-0.097-0.215-0.145c-0.082-0.055-0.165-0.109-0.248-0.162   c-0.072-0.046-0.146-0.092-0.22-0.137c-0.084-0.051-0.17-0.102-0.255-0.15c-0.075-0.043-0.151-0.085-0.227-0.127   c-0.088-0.048-0.175-0.094-0.263-0.139c-0.077-0.04-0.155-0.079-0.231-0.117c-0.09-0.044-0.181-0.086-0.271-0.128   c-0.078-0.036-0.156-0.073-0.236-0.106c-0.092-0.041-0.185-0.078-0.278-0.117c-0.08-0.032-0.159-0.064-0.24-0.096   c-0.095-0.037-0.19-0.07-0.286-0.104c-0.082-0.028-0.163-0.058-0.245-0.085c-0.097-0.032-0.194-0.063-0.293-0.092   c-0.082-0.024-0.165-0.051-0.248-0.074c-0.1-0.028-0.2-0.053-0.301-0.079c-0.083-0.021-0.166-0.043-0.25-0.063   c-0.103-0.023-0.208-0.045-0.313-0.066c-0.082-0.018-0.164-0.035-0.246-0.051c-0.108-0.02-0.217-0.037-0.326-0.053   c-0.081-0.014-0.162-0.027-0.243-0.039c-0.115-0.017-0.231-0.027-0.347-0.041c-0.076-0.009-0.152-0.02-0.23-0.026   c-0.128-0.011-0.258-0.019-0.387-0.027c-0.066-0.004-0.131-0.01-0.197-0.014c-0.195-0.009-0.393-0.013-0.591-0.013   s-0.395,0.004-0.591,0.014c-0.066,0.003-0.132,0.01-0.198,0.014c-0.129,0.008-0.259,0.016-0.387,0.027   c-0.077,0.007-0.154,0.018-0.231,0.025c-0.115,0.014-0.231,0.025-0.346,0.041c-0.081,0.012-0.162,0.026-0.243,0.039   c-0.109,0.018-0.218,0.033-0.326,0.053c-0.083,0.017-0.165,0.035-0.248,0.052c-0.104,0.022-0.209,0.043-0.312,0.067   c-0.084,0.019-0.167,0.041-0.25,0.063c-0.1,0.025-0.201,0.051-0.3,0.078c-0.084,0.023-0.167,0.05-0.25,0.076   c-0.097,0.029-0.195,0.059-0.291,0.091c-0.083,0.026-0.165,0.057-0.247,0.086c-0.094,0.034-0.189,0.067-0.283,0.103   c-0.082,0.031-0.162,0.064-0.243,0.098c-0.093,0.037-0.185,0.076-0.276,0.115c-0.08,0.035-0.159,0.071-0.239,0.107   c-0.09,0.042-0.18,0.083-0.268,0.127c-0.079,0.038-0.157,0.078-0.234,0.118c-0.088,0.045-0.175,0.091-0.261,0.138   c-0.076,0.042-0.152,0.086-0.228,0.129c-0.085,0.049-0.17,0.098-0.253,0.148c-0.075,0.045-0.149,0.092-0.222,0.138   c-0.083,0.052-0.165,0.106-0.246,0.16c-0.073,0.049-0.144,0.097-0.215,0.147c-0.081,0.056-0.16,0.113-0.239,0.17   c-0.07,0.053-0.139,0.104-0.208,0.156c-0.078,0.061-0.154,0.121-0.23,0.182c-0.068,0.055-0.135,0.109-0.201,0.166   c-0.075,0.063-0.149,0.126-0.222,0.191c-0.065,0.057-0.13,0.114-0.194,0.172c-0.072,0.067-0.143,0.135-0.213,0.203   c-0.062,0.06-0.124,0.119-0.185,0.18c-0.07,0.07-0.138,0.142-0.205,0.213c-0.059,0.063-0.119,0.125-0.176,0.188   c-0.067,0.074-0.133,0.149-0.198,0.225c-0.055,0.063-0.111,0.127-0.166,0.193c-0.064,0.076-0.126,0.155-0.189,0.234   c-0.052,0.066-0.105,0.131-0.156,0.199c-0.061,0.08-0.12,0.162-0.18,0.244c-0.049,0.068-0.099,0.136-0.146,0.205   c-0.059,0.084-0.115,0.17-0.171,0.256c-0.046,0.07-0.092,0.138-0.136,0.207c-0.056,0.091-0.11,0.182-0.164,0.273   c-0.04,0.068-0.082,0.137-0.122,0.206c-0.055,0.097-0.106,0.194-0.158,0.293c-0.036,0.067-0.073,0.132-0.107,0.2   c-0.055,0.107-0.107,0.218-0.158,0.327c-0.029,0.06-0.058,0.118-0.086,0.179c-0.063,0.139-0.122,0.279-0.179,0.421   c-0.014,0.033-0.029,0.066-0.042,0.099c-0.07,0.176-0.137,0.354-0.199,0.533c-0.016,0.047-0.03,0.096-0.046,0.143   c-0.045,0.133-0.089,0.266-0.129,0.4c-0.02,0.068-0.038,0.139-0.057,0.207c-0.032,0.116-0.065,0.231-0.094,0.348   c-0.019,0.078-0.035,0.156-0.053,0.234c-0.025,0.11-0.051,0.221-0.073,0.331c-0.016,0.083-0.03,0.166-0.044,0.249   c-0.017,0.092-0.033,0.184-0.048,0.276c3.731,2.223,7.99,3.394,12.362,3.394c4.373,0,8.631-1.171,12.362-3.394   c-0.015-0.093-0.031-0.185-0.047-0.276C65.777,73.917,65.764,73.833,65.748,73.751"></path>
	<path fill="#F1AB1F" d="M106.934,53.256c-0.007-0.034-0.02-0.065-0.029-0.098c-0.012-0.038-0.021-0.077-0.035-0.114   c-0.017-0.039-0.039-0.074-0.059-0.11c-0.015-0.029-0.027-0.059-0.047-0.086c-0.041-0.063-0.089-0.121-0.143-0.175l-6.825-6.826   c-0.444-0.445-1.165-0.445-1.609,0c-0.444,0.444-0.444,1.165,0,1.609l4.884,4.885H91.008c-0.285-9.496-4.111-18.116-10.201-24.583   l8.543-8.543v6.908c0,0.629,0.51,1.138,1.139,1.138s1.137-0.509,1.137-1.138v-9.655c0-0.074-0.008-0.149-0.022-0.223   c-0.006-0.033-0.019-0.065-0.028-0.097c-0.012-0.038-0.021-0.078-0.035-0.115c-0.017-0.038-0.039-0.073-0.059-0.11   c-0.015-0.028-0.027-0.058-0.047-0.085c-0.083-0.125-0.189-0.233-0.314-0.316c-0.028-0.019-0.059-0.032-0.088-0.047   c-0.035-0.02-0.07-0.042-0.108-0.057c-0.037-0.016-0.075-0.024-0.113-0.036c-0.032-0.009-0.065-0.022-0.101-0.029   c-0.068-0.014-0.139-0.021-0.211-0.022c-0.004,0-0.006-0.001-0.01-0.001h-9.656c-0.629,0-1.137,0.51-1.137,1.138   s0.508,1.138,1.137,1.138h6.908l-8.543,8.543c-6.467-6.09-15.086-9.916-24.582-10.2V3.885L59.5,8.77   c0.222,0.222,0.514,0.333,0.805,0.333s0.582-0.111,0.805-0.333c0.444-0.445,0.444-1.165,0-1.609l-6.826-6.827   c-0.054-0.053-0.112-0.1-0.174-0.142c-0.029-0.019-0.062-0.033-0.092-0.049c-0.033-0.019-0.068-0.04-0.105-0.055   c-0.037-0.017-0.078-0.026-0.117-0.038c-0.032-0.009-0.063-0.021-0.094-0.027c-0.147-0.03-0.299-0.03-0.446,0   c-0.033,0.006-0.063,0.018-0.094,0.027c-0.04,0.012-0.08,0.021-0.119,0.037c-0.036,0.015-0.069,0.036-0.103,0.055   c-0.031,0.016-0.063,0.03-0.093,0.05c-0.059,0.039-0.113,0.084-0.164,0.134c-0.003,0.003-0.006,0.004-0.009,0.007L45.846,7.16   c-0.445,0.445-0.445,1.165,0,1.609c0.444,0.445,1.164,0.445,1.609,0l4.885-4.884v12.063c-9.496,0.285-18.115,4.111-24.583,10.201   l-8.543-8.543h6.908c0.628,0,1.138-0.51,1.138-1.138s-0.51-1.138-1.138-1.138h-9.655c-0.004,0-0.007,0.001-0.011,0.001   c-0.071,0.001-0.142,0.008-0.211,0.022c-0.035,0.007-0.067,0.019-0.1,0.029c-0.038,0.011-0.076,0.02-0.113,0.035   c-0.038,0.016-0.072,0.038-0.108,0.057c-0.029,0.016-0.06,0.029-0.088,0.048c-0.059,0.039-0.114,0.085-0.164,0.134   c-0.003,0.003-0.006,0.005-0.009,0.007c-0.003,0.004-0.005,0.007-0.008,0.01c-0.049,0.05-0.094,0.104-0.134,0.164   c-0.019,0.029-0.033,0.061-0.049,0.091c-0.019,0.035-0.04,0.068-0.055,0.104c-0.016,0.039-0.025,0.079-0.037,0.119   c-0.009,0.031-0.021,0.061-0.028,0.094c-0.014,0.074-0.022,0.148-0.022,0.223v9.655c0,0.628,0.509,1.137,1.137,1.137   c0.629,0,1.138-0.509,1.138-1.137v-6.908l8.543,8.543c-6.09,6.467-9.916,15.087-10.2,24.583H3.884l4.885-4.885   c0.444-0.444,0.444-1.165,0-1.609c-0.445-0.444-1.165-0.444-1.61,0l-6.827,6.827c-0.002,0.003-0.004,0.006-0.007,0.009   c-0.049,0.051-0.095,0.105-0.134,0.164c-0.02,0.03-0.033,0.061-0.05,0.092c-0.019,0.034-0.039,0.068-0.055,0.104   c-0.015,0.039-0.025,0.079-0.036,0.118c-0.009,0.032-0.022,0.062-0.028,0.095c-0.029,0.146-0.029,0.298,0,0.445   c0.006,0.033,0.019,0.063,0.028,0.096c0.012,0.039,0.021,0.078,0.036,0.117c0.016,0.037,0.038,0.072,0.057,0.107   c0.016,0.029,0.029,0.061,0.048,0.088c0.042,0.063,0.089,0.121,0.142,0.174l6.826,6.828c0.223,0.221,0.514,0.332,0.805,0.332   s0.582-0.111,0.805-0.334c0.444-0.443,0.444-1.164,0-1.609l-4.885-4.885h12.064c0.284,9.496,4.11,18.116,10.2,24.584l-8.543,8.543   v-6.908c0-0.629-0.51-1.139-1.138-1.139s-1.138,0.51-1.138,1.139v9.654c0,0.075,0.008,0.149,0.023,0.223   c0.006,0.033,0.019,0.064,0.028,0.097c0.012,0.039,0.021,0.078,0.036,0.116c0.016,0.037,0.038,0.072,0.057,0.107   c0.016,0.03,0.029,0.061,0.048,0.088c0.083,0.125,0.19,0.232,0.315,0.316c0.028,0.018,0.057,0.03,0.085,0.046   c0.037,0.021,0.072,0.042,0.111,0.058c0.037,0.016,0.076,0.024,0.114,0.037c0.033,0.008,0.064,0.021,0.098,0.028   c0.073,0.015,0.148,0.022,0.223,0.022h9.655c0.628,0,1.138-0.51,1.138-1.139c0-0.627-0.51-1.138-1.138-1.138h-6.908l8.543-8.543   c6.467,6.09,15.087,9.917,24.582,10.201v12.063l-4.884-4.885c-0.445-0.445-1.165-0.445-1.609,0c-0.445,0.444-0.445,1.165,0,1.609   l6.827,6.826c0.053,0.053,0.111,0.101,0.174,0.143c0.027,0.018,0.057,0.031,0.085,0.046c0.037,0.021,0.072,0.042,0.11,0.058   c0.038,0.016,0.077,0.024,0.115,0.037c0.033,0.008,0.064,0.021,0.098,0.028c0.073,0.015,0.148,0.022,0.222,0.022   c0.075,0,0.15-0.008,0.223-0.022c0.035-0.007,0.066-0.021,0.1-0.03c0.038-0.011,0.076-0.02,0.113-0.035   c0.039-0.016,0.076-0.037,0.112-0.059c0.027-0.016,0.056-0.027,0.083-0.045c0.063-0.042,0.122-0.09,0.176-0.143l6.826-6.826   c0.443-0.444,0.443-1.165,0-1.609c-0.445-0.445-1.166-0.445-1.609,0l-4.885,4.885V91.008c9.496-0.284,18.115-4.11,24.582-10.2   l8.543,8.543h-6.908c-0.627,0-1.137,0.511-1.137,1.138c0,0.629,0.51,1.139,1.137,1.139h9.656c0.074,0,0.148-0.008,0.223-0.023   c0.033-0.007,0.066-0.02,0.099-0.029c0.038-0.011,0.077-0.02,0.113-0.035c0.04-0.016,0.075-0.039,0.112-0.059   c0.027-0.016,0.057-0.027,0.084-0.045c0.125-0.084,0.231-0.191,0.315-0.316c0.017-0.026,0.029-0.055,0.044-0.082   c0.021-0.037,0.044-0.074,0.061-0.113c0.015-0.037,0.023-0.075,0.035-0.113c0.01-0.034,0.022-0.064,0.029-0.1   c0.014-0.073,0.021-0.147,0.021-0.223v-9.654c0-0.629-0.508-1.139-1.137-1.139s-1.138,0.51-1.138,1.139v6.908l-8.544-8.543   c6.09-6.468,9.917-15.088,10.201-24.584h12.063L98.187,59.5c-0.444,0.445-0.444,1.166,0,1.609c0.222,0.223,0.513,0.334,0.804,0.334   s0.584-0.111,0.806-0.334l6.825-6.826c0.054-0.053,0.102-0.111,0.144-0.175c0.017-0.026,0.029-0.055,0.044-0.082   c0.021-0.038,0.043-0.073,0.061-0.114c0.015-0.035,0.023-0.074,0.035-0.112c0.01-0.033,0.022-0.063,0.029-0.099   c0.014-0.074,0.021-0.148,0.021-0.223S106.947,53.328,106.934,53.256 M67.674,75.818c-4.24,2.7-9.149,4.127-14.196,4.127   c-5.048,0-9.956-1.427-14.196-4.127c-7.684-4.893-12.271-13.244-12.271-22.34c0-14.594,11.873-26.468,26.467-26.468   c14.595,0,26.468,11.874,26.468,26.468C79.945,62.574,75.356,70.926,67.674,75.818"></path>
</g>
</svg>
