<?xml version="1.0" encoding="UTF-8"?>
<!-- Generator: Adobe Illustrator 16.0.0, SVG Export Plug-In . SVG Version: 6.00 Build 0)  -->
<svg xmlns="http://www.w3.org/2000/svg" xmlns:xlink="http://www.w3.org/1999/xlink" version="1.1" id="Layer_1" x="0px" y="0px" width="74.292px" height="95.478px" viewBox="0 0 74.292 95.478" xml:space="preserve">
<g>
	<path fill="#F1AB1F" d="M0,77.649l0.103-0.113c0.246-0.307,0.503-0.615,0.79-0.913c1.905-1.901,4.493-2.963,7.185-2.946h4.947V0   H8.027C3.598,0,0.006,3.587,0,8.016V77.649z"></path>
	<rect x="25.383" y="15.776" fill="#F1AB1F" width="38.553" height="20.036"></rect>
	<path fill="#F1AB1F" d="M52.923,87.771h-21.31v4.105h42.679V75.729H8.027c-4.429,0-8.021,3.588-8.027,8.017   c0.022,4.426,3.601,8.009,8.027,8.037h11.578v-4.013H14c-0.566,0-1.026-0.461-1.026-1.027s0.46-1.026,1.026-1.026h5.605v-3.88H14   c-0.566,0-1.026-0.459-1.026-1.025c0-0.567,0.46-1.027,1.026-1.027h51.702c0.567,0,1.026,0.46,1.026,1.027   c0,0.566-0.459,1.025-1.026,1.025H31.614v3.88h21.31c0.566,0,1.025,0.46,1.025,1.026S53.49,87.771,52.923,87.771 M56.977,85.717   h8.725c0.567,0,1.026,0.46,1.026,1.026s-0.459,1.027-1.026,1.027h-8.725c-0.567,0-1.026-0.461-1.026-1.027   S56.41,85.717,56.977,85.717"></path>
	<path fill="#F1AB1F" d="M26.225,93.024l3.336,2.453V81.837h-7.903v13.641l3.347-2.453C25.367,92.757,25.863,92.757,26.225,93.024"></path>
	<path fill="#F1AB1F" d="M74.292,0H15.027v73.677h59.266V0z M52.071,58.567H24.357c-0.567,0-1.026-0.459-1.026-1.025   c0-0.567,0.459-1.026,1.026-1.026h27.714c0.567,0,1.026,0.459,1.026,1.026C53.097,58.108,52.638,58.567,52.071,58.567    M64.963,51.671H24.357c-0.567,0-1.026-0.459-1.026-1.026s0.459-1.026,1.026-1.026h40.606c0.565,0,1.025,0.459,1.025,1.026   S65.529,51.671,64.963,51.671 M64.963,44.763H24.357c-0.567,0-1.026-0.46-1.026-1.027c0-0.566,0.459-1.025,1.026-1.025h40.606   c0.565,0,1.025,0.459,1.025,1.025C65.989,44.303,65.529,44.763,64.963,44.763 M65.989,36.838c0,0.567-0.46,1.026-1.025,1.026   H24.357c-0.567,0-1.026-0.459-1.026-1.026V14.75c0-0.567,0.459-1.026,1.026-1.026h40.606c0.565,0,1.025,0.459,1.025,1.026V36.838z"></path>
</g>
</svg>
