<?xml version="1.0" encoding="UTF-8"?>
<!-- Generator: Adobe Illustrator 16.0.0, SVG Export Plug-In . SVG Version: 6.00 Build 0)  -->
<svg xmlns="http://www.w3.org/2000/svg" xmlns:xlink="http://www.w3.org/1999/xlink" version="1.1" id="Layer_1" x="0px" y="0px" width="79.031px" height="93.271px" viewBox="0 0 79.031 93.271" xml:space="preserve">
<g>
	<path fill="#F1AB1F" d="M19.08,7.82c-0.77,0-1.399,0.62-1.399,1.38c0,0.76,0.63,1.39,1.399,1.39c0.771,0,1.391-0.62,1.391-1.39   S19.851,7.82,19.08,7.82"></path>
	<path fill="#F1AB1F" d="M8.771,7.82C8,7.82,7.37,8.44,7.37,9.2c0,0.76,0.63,1.39,1.4,1.39c0.77,0,1.39-0.62,1.39-1.39   S9.54,7.82,8.771,7.82"></path>
	<path fill="#F1AB1F" d="M0,20.66v66.91c0,3.15,2.561,5.701,5.7,5.701h67.62c3.15,0,5.701-2.561,5.701-5.701V20.66H0z M69.089,58.81   c0,2.221-1.799,4.02-4.02,4.02h-4.379c-0.48,1.73-1.17,3.391-2.07,4.951l3.109,3.08c1.561,1.59,1.561,4.14,0,5.699l-2.65,2.631   c-1.57,1.549-4.109,1.549-5.66,0L50.31,76.09c-1.529,0.89-3.189,1.58-4.959,2.069v4.351c0,2.22-1.801,4.021-4,4.021H37.63   c-2.21,0-4-1.801-4-4.021v-4.34C31.9,77.701,30.23,77,28.66,76.1l-3.1,3.101c-1.51,1.51-4.15,1.51-5.66,0L17.26,76.58   c-1.56-1.559-1.569-4.109,0-5.689l3.091-3.09c-0.891-1.57-1.58-3.23-2.061-4.95h-4.359c-2.21,0-4-1.8-4-4.021V55.13   c0-2.221,1.8-4.02,4-4.02h4.38c0.49-1.771,1.18-3.431,2.06-4.951l-3.11-3.1c-0.76-0.76-1.17-1.76-1.17-2.84s0.42-2.08,1.17-2.84   l2.65-2.63c1.5-1.51,4.141-1.51,5.65,0l3.12,3.09c1.59-0.89,3.25-1.58,4.949-2.05v-4.35c0-2.25,1.761-4.02,4-4.02h3.721   c2.209,0,4,1.8,4,4.02v4.35c1.738,0.48,3.398,1.18,4.949,2.07l3.119-3.12c1.551-1.55,4.09-1.55,5.65,0l2.65,2.63   c0.76,0.76,1.17,1.77,1.17,2.84c0,1.07-0.42,2.08-1.17,2.84l-3.119,3.12c0.889,1.55,1.58,3.2,2.068,4.93h4.391   c2.221,0,4.02,1.8,4.02,4.021v3.699L69.089,58.81z"></path>
	<path fill="#F1AB1F" d="M65.07,53.32h-5.25c-0.52,0-0.969-0.359-1.09-0.859c-0.5-2.1-1.33-4.08-2.471-5.89   c-0.279-0.44-0.209-1.02,0.16-1.39l3.74-3.74c0.691-0.69,0.691-1.82,0-2.51l-2.639-2.62c-0.701-0.7-1.801-0.7-2.5,0l-3.74,3.73   c-0.371,0.37-0.941,0.43-1.391,0.16c-1.811-1.14-3.801-1.97-5.9-2.47c-0.51-0.12-0.859-0.57-0.859-1.09v-5.22   c0-1-0.77-1.78-1.76-1.78h-3.72c-0.99,0-1.76,0.78-1.76,1.78v5.22c0,0.52-0.36,0.97-0.87,1.09c-2.04,0.47-4.03,1.29-5.91,2.44   c-0.44,0.27-1.01,0.2-1.37-0.16L24,36.31c-0.68-0.68-1.83-0.67-2.5,0l-2.649,2.63c-0.33,0.33-0.511,0.78-0.511,1.25   c0,0.47,0.181,0.92,0.521,1.25l3.729,3.72c0.37,0.37,0.44,0.96,0.15,1.4c-1.13,1.75-1.96,3.73-2.46,5.891   c-0.12,0.51-0.57,0.869-1.09,0.869h-5.25c-0.99,0-1.76,0.78-1.76,1.78v3.7c0,0.98,0.79,1.779,1.76,1.779h5.229   c0.521,0,0.971,0.36,1.09,0.871c0.48,2.08,1.311,4.06,2.45,5.91c0.28,0.439,0.21,1.01-0.159,1.379l-3.7,3.7   c-0.69,0.7-0.69,1.83,0,2.53l2.64,2.62c0.67,0.67,1.83,0.67,2.5,0l3.72-3.72c0.221-0.221,0.5-0.33,0.79-0.33   c0.21,0,0.42,0.06,0.601,0.17c1.83,1.16,3.819,1.99,5.909,2.459c0.511,0.121,0.87,0.57,0.87,1.091v5.22c0,1,0.771,1.78,1.761,1.78   h3.72c0.969,0,1.76-0.8,1.76-1.78v-5.22c0-0.521,0.359-0.97,0.859-1.091c2.141-0.5,4.131-1.329,5.9-2.459   c0.439-0.28,1.02-0.221,1.391,0.15l3.738,3.719c0.701,0.701,1.791,0.69,2.5,0l2.641-2.619c0.689-0.69,0.68-1.82,0-2.53l-3.73-3.69   c-0.369-0.369-0.439-0.949-0.16-1.39c1.15-1.819,1.98-3.81,2.471-5.899c0.121-0.511,0.57-0.871,1.09-0.871h5.25   c0.98,0,1.781-0.799,1.781-1.779v-3.7C66.851,54.121,66.05,53.32,65.07,53.32 M33.101,59.57c0.5,0.36,0.63,1.051,0.27,1.561   c-0.22,0.31-0.56,0.47-0.92,0.47c-0.22,0-0.45-0.069-0.64-0.21l-4.99-3.52c-0.3-0.211-0.47-0.551-0.47-0.91   c0-0.36,0.18-0.7,0.47-0.91l4.99-3.52c0.51-0.361,1.21-0.24,1.56,0.27c0.36,0.51,0.24,1.199-0.27,1.561l-3.69,2.609l3.69,2.609   V59.57z M43.08,48.76L38.101,65.8c-0.141,0.49-0.591,0.8-1.07,0.8c-0.1,0-0.21-0.01-0.31-0.05c-0.591-0.17-0.931-0.79-0.761-1.391   l4.981-17.039c0.17-0.59,0.789-0.931,1.389-0.76c0.59,0.17,0.93,0.789,0.76,1.389L43.08,48.76z M52.201,57.88l-4.99,3.52   c-0.201,0.141-0.42,0.211-0.641,0.211c-0.35,0-0.699-0.16-0.92-0.471c-0.359-0.5-0.24-1.2,0.27-1.561l3.691-2.609l-3.691-2.609   C45.41,54,45.291,53.3,45.65,52.8c0.35-0.51,1.051-0.631,1.561-0.27l4.99,3.52c0.299,0.21,0.469,0.55,0.469,0.91   c0,0.359-0.18,0.699-0.469,0.91V57.88z"></path>
	<path fill="#F1AB1F" d="M79.031,5.7c0-3.15-2.561-5.7-5.701-5.7H5.7C2.561,0,0,2.56,0,5.7v12.71h79.031V5.7z M8.771,12.83   c-2.011,0-3.641-1.63-3.641-3.62c0-1.99,1.63-3.62,3.641-3.62c2.01,0,3.62,1.62,3.62,3.62S10.76,12.83,8.771,12.83 M19.08,12.83   c-2.01,0-3.64-1.63-3.64-3.62c0-1.99,1.63-3.62,3.64-3.62s3.62,1.62,3.62,3.62S21.07,12.83,19.08,12.83 M29.391,12.83   c-2.011,0-3.641-1.63-3.641-3.62c0-1.99,1.63-3.62,3.641-3.62c2.01,0,3.619,1.62,3.619,3.62S31.38,12.83,29.391,12.83    M72.781,10.32H52.16c-0.619,0-1.119-0.5-1.119-1.12c0-0.62,0.5-1.12,1.119-1.12h20.621c0.619,0,1.119,0.5,1.119,1.12   C73.9,9.82,73.4,10.32,72.781,10.32"></path>
	<path fill="#F1AB1F" d="M29.391,7.82c-0.771,0-1.4,0.62-1.4,1.38c0,0.76,0.63,1.39,1.4,1.39c0.77,0,1.39-0.62,1.39-1.39   S30.16,7.82,29.391,7.82"></path>
</g>
</svg>
