<?xml version="1.0" encoding="UTF-8"?>
<!-- Generator: Adobe Illustrator 16.0.0, SVG Export Plug-In . SVG Version: 6.00 Build 0)  -->
<svg xmlns="http://www.w3.org/2000/svg" xmlns:xlink="http://www.w3.org/1999/xlink" version="1.1" id="Layer_1" x="0px" y="0px" width="117.873px" height="92.348px" viewBox="0 0 117.873 92.348" xml:space="preserve">
<g>
	<path fill="#F1AB1F" d="M8.073,92.348h101.725c2.219,0,4.238-0.91,5.701-2.371c1.463-1.463,2.373-3.482,2.373-5.701v-6.313h-10.828   H76.208v7.193c0,0.725-0.592,1.315-1.316,1.315h-31.91c-0.725,0-1.315-0.591-1.315-1.315v-7.193H10.796H0v6.313   c0,2.219,0.91,4.238,2.373,5.701C3.835,91.438,5.855,92.348,8.073,92.348 M60.927,18.517c-0.725,0-1.316-0.59-1.316-1.316   c0-0.725,0.592-1.315,1.316-1.315h17.039c0.725,0,1.314,0.59,1.314,1.315c0,0.726-0.59,1.316-1.314,1.316H60.927z M60.927,9.633   c-0.725,0-1.316-0.591-1.316-1.316c0-0.726,0.592-1.316,1.316-1.316h17.039c0.725,0,1.314,0.59,1.314,1.316   c0,0.725-0.59,1.316-1.314,1.316H60.927z M50.998,66.135v-7.339c0-1.289-0.528-2.466-1.375-3.315   c-0.85-0.846-2.025-1.375-3.315-1.375H35.33c-1.291,0-2.466,0.529-3.315,1.375c-0.846,0.85-1.375,2.026-1.375,3.315v7.339H50.998z    M28.009,66.135v-7.339c0-2.01,0.825-3.84,2.147-5.167c1.332-1.33,3.161-2.154,5.174-2.154h10.978c2.01,0,3.84,0.824,5.167,2.148   c1.329,1.333,2.154,3.163,2.154,5.173v7.339h42.726V15.557h-5.1v3.953c0,2.376-0.975,4.54-2.535,6.102   c-1.566,1.565-3.727,2.537-6.104,2.537H68.873L57.209,39.813c-0.513,0.512-1.349,0.512-1.86,0c-0.257-0.257-0.386-0.594-0.386-0.93   V28.048c-1.849-0.286-3.51-1.165-4.781-2.436c-1.573-1.576-2.542-3.733-2.542-6.102v-3.953H21.52v50.578H28.009z M91.255,6.361   v6.564h6.416c0.725,0,1.314,0.59,1.314,1.316V67.45c0,0.726-0.59,1.315-1.314,1.315H52.348H29.291h-9.088   c-0.725,0-1.315-0.59-1.315-1.315V14.241c0-0.726,0.591-1.316,1.315-1.316H47.64V6.361H20.201c-2.222,0-4.241,0.907-5.699,2.367   c-1.467,1.465-2.374,3.486-2.374,5.707V75.33h30.854c0.726,0,1.316,0.591,1.316,1.316v7.192h29.277v-7.192   c0-0.726,0.592-1.316,1.316-1.316h30.852V14.435c0-2.221-0.906-4.242-2.365-5.7c-1.467-1.467-3.486-2.374-5.707-2.374H91.255z    M82.617,0H56.278c-1.653,0-3.157,0.674-4.241,1.76c-0.904,0.903-1.522,2.088-1.721,3.501c-0.031,0.257-0.046,0.497-0.046,0.746   v8.251v5.252c0,1.654,0.674,3.158,1.76,4.242c1.091,1.092,2.595,1.766,4.248,1.766c0.727,0,1.316,0.59,1.316,1.316v8.872   l9.803-9.803c0.238-0.238,0.566-0.385,0.93-0.385h14.289c1.65,0,3.152-0.677,4.242-1.766c1.086-1.088,1.764-2.591,1.764-4.242   v-5.286V6.007c0-0.258-0.016-0.513-0.047-0.761c-0.176-1.348-0.799-2.562-1.717-3.48C85.769,0.677,84.267,0,82.617,0    M40.818,31.223c2.461,0,4.69,0.999,6.303,2.611c1.611,1.612,2.61,3.841,2.61,6.302c0,2.455-0.999,4.684-2.614,6.299   c-1.608,1.615-3.837,2.615-6.299,2.615c-2.456,0-4.684-1-6.3-2.615c-1.615-1.608-2.613-3.839-2.613-6.299   c0-2.458,0.998-4.683,2.61-6.297C36.128,32.22,38.358,31.223,40.818,31.223 M45.26,35.695c-1.135-1.135-2.707-1.841-4.441-1.841   s-3.307,0.704-4.441,1.84c-1.138,1.133-1.84,2.705-1.84,4.442c0,1.735,0.703,3.307,1.84,4.442c1.131,1.139,2.703,1.841,4.441,1.841   c1.734,0,3.307-0.705,4.441-1.841c1.139-1.131,1.841-2.704,1.841-4.442C47.101,38.403,46.395,36.83,45.26,35.695"></path>
</g>
</svg>
